<svg width="112" height="17" viewBox="0 0 112 17" fill="none" xmlns="http://www.w3.org/2000/svg">
<path d="M9.002 0L11.128 6.494H18.005L12.441 10.506L14.566 17L9.002 12.987L3.438 17L5.564 10.506L0 6.494H6.878L9.002 0Z" fill="#81B3D2"/>
<path d="M31.002 0L33.128 6.494H40.005L34.441 10.506L36.566 17L31.002 12.987L25.438 17L27.564 10.506L22 6.494H28.878L31.002 0Z" fill="#81B3D2"/>
<path d="M55.002 0L57.128 6.494H64.005L58.441 10.506L60.566 17L55.002 12.987L49.438 17L51.564 10.506L46 6.494H52.878L55.002 0Z" fill="#81B3D2"/>
<path d="M80.002 0L82.128 6.494H89.005L83.441 10.506L85.566 17L80.002 12.987L74.438 17L76.564 10.506L71 6.494H77.878L80.002 0Z" fill="#81B3D2"/>
<path d="M103.002 0L105.128 6.494H112.005L106.441 10.506L108.566 17L103.002 12.987L97.438 17L99.564 10.506L94 6.494H100.878L103.002 0Z" fill="#81B3D2"/>
</svg>
